<svg xmlns="http://www.w3.org/2000/svg" width="16" height="12.56" viewBox="0 0 16 12.56">
  <defs>
    <style>
      .cls-1 {
        fill: #60a75e;
        fill-rule: evenodd;
      }
    </style>
  </defs>
  <path id="email_icon" class="cls-1" d="M1185.75,2033.05a5.146,5.146,0,0,1-.9.78c-1.49,1.01-2.99,2.02-4.44,3.08a4.921,4.921,0,0,1-2.65,1.23h-0.02a4.921,4.921,0,0,1-2.65-1.23c-1.46-1.06-2.96-2.07-4.44-3.08a5.146,5.146,0,0,1-.9-0.78v7.09a1.436,1.436,0,0,0,1.43,1.43h13.14a1.443,1.443,0,0,0,1.43-1.43v-7.09Zm0-2.62a1.436,1.436,0,0,0-1.43-1.43h-13.14a1.444,1.444,0,0,0-1.43,1.62,3.451,3.451,0,0,0,1.54,2.25c1.38,0.97,2.78,1.93,4.17,2.9a5.313,5.313,0,0,0,2.28,1.23h0.02a5.313,5.313,0,0,0,2.28-1.23c1.39-.97,2.79-1.93,4.18-2.9A3.2,3.2,0,0,0,1185.75,2030.43Z" transform="translate(-1169.75 -2029)"/>
</svg>
