<svg xmlns="http://www.w3.org/2000/svg" width="117.03" height="74" viewBox="0 0 117.03 74">
  <defs>
    <style>
      .cls-1 {
        fill: #60a75e;
        fill-rule: evenodd;
      }
    </style>
  </defs>
  <path id="envelope" class="cls-1" d="M1374.68,3068.92l-13.36-35.55a5.161,5.161,0,0,0-2.72-2.9,5.28,5.28,0,0,0-4-.15l-65.11,23.73a5.141,5.141,0,0,0-2.94,2.68,5.041,5.041,0,0,0-.16,3.94l13.36,35.56a5.113,5.113,0,0,0,2.72,2.89,5.187,5.187,0,0,0,4,.15l65.11-23.72h0A5.148,5.148,0,0,0,1374.68,3068.92Zm-23.66-31.8-20.2,28.44-34.12-8.64Zm-47.31,54.81-11.58-30.84,26.82,6.79Zm5.67,0.78,14.89-23.48,7.01,1.77a2.372,2.372,0,0,0,.65.09,2.639,2.639,0,0,0,2.14-1.1l4.15-5.84,26.82,8.28Zm31.99-32.99,15.87-22.36,11.59,30.84Zm-52.88,37.21a2.634,2.634,0,0,0-3.36-1.52l-9.87,3.59a2.578,2.578,0,0,0-1.54,3.32,2.61,2.61,0,0,0,2.45,1.68,2.646,2.646,0,0,0,.91-0.16l9.86-3.6A2.561,2.561,0,0,0,1288.49,3096.93ZM1275.14,3073a2.63,2.63,0,0,0-3.36-1.53l-6.09,2.22a2.575,2.575,0,0,0-1.55,3.32,2.635,2.635,0,0,0,3.36,1.52l6.09-2.22A2.565,2.565,0,0,0,1275.14,3073Zm-7.55,19.53a2.63,2.63,0,0,0-3.36-1.53l-4.53,1.65a2.578,2.578,0,0,0-1.54,3.32,2.61,2.61,0,0,0,2.45,1.68,2.646,2.646,0,0,0,.91-0.16l4.53-1.65A2.568,2.568,0,0,0,1267.59,3092.53Z" transform="translate(-1257.97 -3030)"/>
</svg>
